<svg id="Capa_1" enable-background="new 0 0 512 512" height="512" viewBox="0 0 512 512" width="512" xmlns="http://www.w3.org/2000/svg"><g><path d="m407.092 204.125c4.143 0 7.5-3.357 7.5-7.5v-38.421c0-20.763-16.892-37.654-37.654-37.654h-21.254c-2.333-8.938-8.578-16.308-16.787-20.173v-57.844c0-14.676-11.939-26.615-26.614-26.615h-1.582c-1.463-9.01-9.277-15.918-18.694-15.918h-44.664c-9.458 0-17.298 6.969-18.712 16.037-13.519 1.254-24.139 12.656-24.139 26.496v57.843c-8.208 3.866-14.452 11.236-16.786 20.173h-21.254c-20.764 0-37.655 16.892-37.655 37.654v39.935h-9.006c-12.343 0-22.384 10.041-22.384 22.384v123.158c0 4.143 3.357 7.5 7.5 7.5s7.5-3.357 7.5-7.5v-123.158c0-4.071 3.313-7.384 7.384-7.384h9.006v182.44h-9.006c-4.071 0-7.384-3.313-7.384-7.384v-14.527c0-4.143-3.357-7.5-7.5-7.5s-7.5 3.357-7.5 7.5v14.527c0 12.343 10.041 22.384 22.384 22.384h9.006v39.935c0 20.763 16.892 37.654 37.655 37.654h8.811c5.44 13.933 18.996 23.833 34.83 23.833s29.39-9.9 34.829-23.832h53.545c5.44 13.932 18.997 23.832 34.83 23.832s29.39-9.9 34.829-23.832h8.812c20.763 0 37.654-16.892 37.654-37.654v-223.902c0-4.143-3.357-7.5-7.5-7.5s-7.5 3.357-7.5 7.5v223.901c0 12.491-10.163 22.654-22.654 22.654h-6.297c-.766-19.942-17.218-35.932-37.344-35.932s-36.579 15.99-37.345 35.932h-48.514c-.766-19.942-17.219-35.932-37.345-35.932s-36.579 15.99-37.345 35.932h-6.296c-12.492 0-22.655-10.163-22.655-22.654v-292.31c0-12.491 10.163-22.654 22.655-22.654h20.255v222.361c0 17.043 13.865 30.908 30.907 30.908h108.16c17.043 0 30.908-13.865 30.908-30.908v-222.36h20.255c12.491 0 22.654 10.163 22.654 22.654v38.421c.001 4.143 3.359 7.5 7.501 7.5zm-73.795 248.111c12.341 0 22.381 10.04 22.381 22.382s-10.04 22.382-22.381 22.382c-12.342 0-22.382-10.04-22.382-22.382s10.041-22.382 22.382-22.382zm-123.204 0c12.342 0 22.382 10.04 22.382 22.382s-10.04 22.382-22.382 22.382-22.382-10.04-22.382-22.382 10.04-22.382 22.382-22.382zm33.289-433.275c0-2.184 1.777-3.961 3.961-3.961h44.664c2.184 0 3.961 1.777 3.961 3.961v8.915c0 2.185-1.777 3.962-3.961 3.962h-44.664c-2.184 0-3.961-1.777-3.961-3.962zm98.301 338.95c0 8.771-7.137 15.908-15.908 15.908h-108.16c-8.771 0-15.907-7.137-15.907-15.908v-229.558c0-8.771 7.136-15.908 15.907-15.908h39.087c4.143 0 7.5-3.357 7.5-7.5s-3.357-7.5-7.5-7.5h-37.209v-54.912c0-5.575 3.95-10.241 9.196-11.358 1.568 8.886 9.326 15.663 18.654 15.663h44.664c9.417 0 17.231-6.909 18.694-15.92h1.582c6.404 0 11.614 5.211 11.614 11.615v54.911h-37.208c-4.143 0-7.5 3.357-7.5 7.5s3.357 7.5 7.5 7.5h39.086c8.771 0 15.908 7.137 15.908 15.908z"/><path d="m271.695 295.261c-15.203 0-27.571 12.368-27.571 27.571s12.368 27.571 27.571 27.571 27.572-12.368 27.572-27.571-12.369-27.571-27.572-27.571zm0 40.142c-6.932 0-12.571-5.64-12.571-12.571s5.64-12.571 12.571-12.571c6.933 0 12.572 5.64 12.572 12.571s-5.64 12.571-12.572 12.571z"/><path d="m291.767 262.572h-40.144c-4.143 0-7.5 3.357-7.5 7.5s3.357 7.5 7.5 7.5h40.144c4.143 0 7.5-3.357 7.5-7.5s-3.357-7.5-7.5-7.5z"/><path d="m291.767 226.443h-40.144c-4.143 0-7.5 3.357-7.5 7.5s3.357 7.5 7.5 7.5h40.144c4.143 0 7.5-3.357 7.5-7.5s-3.357-7.5-7.5-7.5z"/><path d="m291.767 190.314h-40.144c-4.143 0-7.5 3.357-7.5 7.5s3.357 7.5 7.5 7.5h40.144c4.143 0 7.5-3.357 7.5-7.5s-3.357-7.5-7.5-7.5z"/><path d="m367.589 160.041v10.789c0 4.143 3.357 7.5 7.5 7.5s7.5-3.357 7.5-7.5v-10.789c0-4.143-3.357-7.5-7.5-7.5s-7.5 3.357-7.5 7.5z"/></g></svg>