<svg id="Capa_1" data-name="Capa 1" xmlns="http://www.w3.org/2000/svg" viewBox="0 0 576.15093 159.98973"><defs><style>.cls-1{fill:#2c38a8;}</style></defs><title>bringuLogoTextBlue</title><path class="cls-1" d="M93.226,163.21887a3.30949,3.30949,0,0,1-1.53994-.38l-76.61-39.99827a3.33482,3.33482,0,0,1-1.79326-2.95321V44.89067a3.33146,3.33146,0,0,1,4.81979-2.97987l76.61,38.33167a3.33856,3.33856,0,0,1,1.83992,2.97987v76.66335a3.33334,3.33334,0,0,1-1.6066,2.8532A3.28525,3.28525,0,0,1,93.226,163.21887ZM19.94914,117.86751l69.94363,36.51842V85.28226L19.94914,50.28378Z" transform="translate(-13.27583 -3.22915)"/><path class="cls-1" d="M93.33262,163.21887a3.32847,3.32847,0,0,1-3.33319-3.33318V83.22234a3.33857,3.33857,0,0,1,1.83992-2.97986l76.61-38.33167a3.33851,3.33851,0,0,1,4.82646,2.97987v74.99674a3.33483,3.33483,0,0,1-1.79325,2.95321l-76.61,39.99827a3.30946,3.30946,0,0,1-1.53993.38Zm3.33319-77.93661v69.10366l69.94363-36.51842V50.28377Zm73.27682,34.60516h0Z" transform="translate(-13.27583 -3.22915)"/><path class="cls-1" d="M16.616,48.22386a3.33132,3.33132,0,0,1-1.49327-6.31306L91.83935,3.57913a3.34646,3.34646,0,0,1,2.97987,0l76.61,38.33167a3.33458,3.33458,0,0,1-2.97986,5.96641L93.33263,10.28551l-75.22341,37.585a3.31914,3.31914,0,0,1-1.49327.35331Z" transform="translate(-13.27583 -3.22915)"/><path class="cls-1" d="M113.27755,115.22148a3.3344,3.3344,0,0,1-3.33318-3.33319V77.28312L35.17428,39.87141a3.33607,3.33607,0,0,1,2.98653-5.9664l76.61,38.33167a3.35613,3.35613,0,0,1,1.83991,2.98653v36.66508a3.33441,3.33441,0,0,1-3.33319,3.33319Z" transform="translate(-13.27583 -3.22915)"/><path class="cls-1" d="M154.80723,93.10223A3.33441,3.33441,0,0,1,151.474,89.769V55.16388L76.704,17.75217a3.33607,3.33607,0,0,1,2.98654-5.96641l76.61,38.33167A3.35613,3.35613,0,0,1,158.1404,53.104V89.769a3.33441,3.33441,0,0,1-3.33319,3.33319Z" transform="translate(-13.27583 -3.22915)"/><path class="cls-1" d="M224.79785,126.90625H200.30566V41.06641q15.64454-.761,22.5586-.76172,12.71337,0,19.6875,5.47851,6.97266,5.47926,6.97265,15.67383a15.88517,15.88517,0,0,1-4.45312,10.89844,18.98424,18.98424,0,0,1-9.84375,6.15234q10.1953,2.46094,14.85351,8.14453,4.65821,5.68433,4.65821,15.46875,0,11.30933-8.291,18.04688Q238.15576,126.907,224.79785,126.90625ZM212.02441,50.44141v24.668q3.69141.35156,9.14063.35156,16.64063,0,16.64062-13.53516,0-11.8938-15.293-11.89453Q216.65333,50.03125,212.02441,50.44141Zm0,33.75v32.7539q6.0337.58668,9.25782.58594,11.01563,0,16.084-4.13086,5.06689-4.13087,5.06836-13.1543,0-8.37817-4.834-12.36328-4.834-3.98364-16.14258-3.98437Z" transform="translate(-13.27583 -3.22915)"/><path class="cls-1" d="M315.85254,126.90625,292.94238,90.05078q-3.92577,0-12.42187-.58594v37.44141H268.80176V41.06641q.64453,0,9.11133-.43946t12.334-.43945q30.9375,0,30.9375,24.60938a23.282,23.282,0,0,1-4.98047,14.56054,20.70138,20.70138,0,0,1-11.83594,8.05664l24.90235,39.49219Zm-35.332-75.293V79.50391a59.53132,59.53132,0,0,0,8.20312.58593q10.54688,0,15.35157-3.39843,4.80321-3.39771,4.80468-12.12891,0-7.207-5.15625-10.37109t-16.28906-3.16407Q285.67677,51.02734,280.52051,51.61328Z" transform="translate(-13.27583 -3.22915)"/><path class="cls-1" d="M340.11035,126.90625V41.06641H351.8291v85.83984Z" transform="translate(-13.27583 -3.22915)"/><path class="cls-1" d="M426.94629,128.07813,382.59082,65.32422v61.582H371.458V41.06641h4.6875l43.18359,59.35547V41.06641h11.13281v87.01172Z" transform="translate(-13.27583 -3.22915)"/><path class="cls-1" d="M507.5127,47.043l-4.86329,9.668q-8.84764-6.56177-17.34375-6.5625-13.478,0-21.26953,9.49219-7.793,9.49218-7.793,25.13671,0,14.88356,7.64649,23.96485,7.64647,9.08276,20.83008,9.082,9.37353,0,15.17578-5.625V92.10156H488.001V82.14063h23.61328v37.38281q-4.689,3.98511-13.06641,6.416a58.34233,58.34233,0,0,1-16.28906,2.43164q-17.75391,0-28.03711-12.041t-10.2832-32.02149q0-19.92114,11.27929-32.31445,11.2793-12.39258,30.43946-12.39258Q499.07373,39.60156,507.5127,47.043Z" transform="translate(-13.27583 -3.22915)"/><path class="cls-1" d="M529.19238,41.06641h11.71875V99.83594a17.66381,17.66381,0,0,0,4.98047,12.91992q4.979,5.06909,13.1836,5.06836,8.6704,0,13.65234-4.92188,4.979-4.92187,4.98047-13.35937V41.06641h11.71875v59.707q0,13.00781-8.11524,20.30273-8.11669,7.29492-22.11914,7.29492-14.41405,0-22.207-7.14843-7.793-7.14771-7.793-20.50782Z" transform="translate(-13.27583 -3.22915)"/></svg>