<svg id="Capa_1" data-name="Capa 1" xmlns="http://www.w3.org/2000/svg" viewBox="0 0 2118.7041 490"><defs><style>.cls-1{fill:#2c38a8;}.cls-2{fill:#f3dc24;}</style></defs><title>BRINGUlogotext</title><rect class="cls-1" x="40" y="40" width="450" height="450"/><rect class="cls-2" width="450" height="450"/><path class="cls-1" d="M196.3208,332.76563H298.94092c62.23681,0,110.56982,17.09814,110.56982,74.35937,0,26.894-15.04394,55.52441-39.502,64.72461v1.83984c30.626,7.957,54.27441,30.52246,54.27441,70.56934,0,60.99316-51.5791,88.32129-116.79,88.32129H196.3208Zm99.48438,120.08105c32.8872,0,47.439-13.90332,47.439-35.70508,0-23.09765-15.36133-32.07764-46.95312-32.07764h-32.1875v67.78272Zm6.168,127.43555c36.94971,0,56.04346-13.14649,56.04346-40.41016,0-26.291-18.76953-37.001-56.04346-37.001H264.10352v77.41114Z" transform="translate(-76.5 -255)"/><circle class="cls-1" cx="25" cy="25" r="12.5"/><circle class="cls-1" cx="425" cy="425" r="12.5"/><path class="cls-1" d="M660.47754,347.7041H763.09863c62.23633,0,110.56934,17.09815,110.56934,74.35938,0,26.894-15.04395,55.5249-39.50195,64.72461v1.84033c30.626,7.95605,54.27441,30.523,54.27441,70.56885,0,60.99316-51.5791,88.32128-116.79,88.32128H660.47754Zm99.48535,120.08154c32.88672,0,47.43848-13.9038,47.43848-35.70556,0-23.09766-15.36133-32.07764-46.95313-32.07764h-32.1875v67.7832Zm6.168,127.43506c36.94922,0,56.043-13.14648,56.043-40.40918,0-26.292-18.76953-37.00195-56.043-37.00195H728.26074V595.2207Z" transform="translate(-76.5 -255)"/><path class="cls-1" d="M938.77539,347.7041h107.97852c63.59179,0,115.71484,22.08057,115.71484,93.36231,0,68.90039-52.123,98.55859-115.71484,98.55859h-40.19532V647.51855h-67.7832Zm102.459,138.106c35.65332,0,54.80566-15.25781,54.80566-44.74365,0-29.648-19.15234-39.54786-54.80566-39.54786h-34.67579v84.29151Zm-6.87793,35.94873,46.88183-43.37061,95.68457,169.13037h-75.84863Z" transform="translate(-76.5 -255)"/><path class="cls-1" d="M1220.751,347.7041h67.7832V647.51855H1220.751Z" transform="translate(-76.5 -255)"/><path class="cls-1" d="M1359.209,347.7041h69.46192l78.22656,149.11377,29.6543,65.86572h1.83984c-3.19433-31.71484-8.66211-73.71826-8.66211-109.061V347.7041h64.58887V647.51855h-69.46094l-78.22754-149.49218L1416.97559,432.54h-1.83985c3.19434,33.06836,8.66211,73.23242,8.66211,108.57519V647.51855H1359.209Z" transform="translate(-76.5 -255)"/><path class="cls-1" d="M1650.92969,499.34473c0-99.47168,66.08594-157.16065,146.127-157.16065,43.5127,0,74.417,18.5625,94.60547,38.9126l-35.73145,43.47412c-14.88183-13.68994-30.89746-23.86182-56.59961-23.86182-46.15039,0-78.94042,36.24952-78.94042,96.36133,0,61.62793,27.918,97.44336,84.35644,97.44336,12.00586,0,24.44531-3.13574,31.74707-8.9209v-51.7666h-49.668V478.49512h109.87012V616.72363c-20.67383,20.24024-57.09863,36.31543-98.93359,36.31543C1715.17578,653.03906,1650.92969,600.332,1650.92969,499.34473Z" transform="translate(-76.5 -255)"/><path class="cls-1" d="M1956.90137,508.584V347.7041h67.7832V515.5166c0,58.70508,18.49707,78.99707,52.0459,78.99707,33.71,0,53.12695-20.292,53.12695-78.99707V347.7041h65.34668V508.584c0,100.66309-40.9082,144.45508-118.47363,144.45508C1999.16406,653.03906,1956.90137,609.24707,1956.90137,508.584Z" transform="translate(-76.5 -255)"/></svg>