<svg id="Capa_1" data-name="Capa 1" xmlns="http://www.w3.org/2000/svg" viewBox="0 0 160 159.98973"><defs><style>.cls-1{fill:#2c38a8;}</style></defs><title>BringuLogoIconBlue</title><path class="cls-1" d="M93.226,163.21887a3.30949,3.30949,0,0,1-1.53994-.38l-76.61-39.99827a3.33482,3.33482,0,0,1-1.79326-2.95321V44.89067a3.33146,3.33146,0,0,1,4.81979-2.97987l76.61,38.33167a3.33856,3.33856,0,0,1,1.83992,2.97987v76.66335a3.33334,3.33334,0,0,1-1.6066,2.8532A3.28525,3.28525,0,0,1,93.226,163.21887ZM19.94914,117.86751l69.94363,36.51842V85.28226L19.94914,50.28378Z" transform="translate(-13.27583 -3.22915)"/><path class="cls-1" d="M93.33262,163.21887a3.32847,3.32847,0,0,1-3.33319-3.33318V83.22234a3.33857,3.33857,0,0,1,1.83992-2.97986l76.61-38.33167a3.33851,3.33851,0,0,1,4.82646,2.97987v74.99674a3.33483,3.33483,0,0,1-1.79325,2.95321l-76.61,39.99827a3.30946,3.30946,0,0,1-1.53993.38Zm3.33319-77.93661v69.10366l69.94363-36.51842V50.28377Zm73.27682,34.60516h0Z" transform="translate(-13.27583 -3.22915)"/><path class="cls-1" d="M16.616,48.22386a3.33132,3.33132,0,0,1-1.49327-6.31306L91.83935,3.57913a3.34646,3.34646,0,0,1,2.97987,0l76.61,38.33167a3.33458,3.33458,0,0,1-2.97986,5.96641L93.33263,10.28551l-75.22341,37.585a3.31914,3.31914,0,0,1-1.49327.35331Z" transform="translate(-13.27583 -3.22915)"/><path class="cls-1" d="M113.27755,115.22148a3.3344,3.3344,0,0,1-3.33318-3.33319V77.28312L35.17428,39.87141a3.33607,3.33607,0,0,1,2.98653-5.9664l76.61,38.33167a3.35613,3.35613,0,0,1,1.83991,2.98653v36.66508a3.33441,3.33441,0,0,1-3.33319,3.33319Z" transform="translate(-13.27583 -3.22915)"/><path class="cls-1" d="M154.80723,93.10223A3.33441,3.33441,0,0,1,151.474,89.769V55.16388L76.704,17.75217a3.33607,3.33607,0,0,1,2.98654-5.96641l76.61,38.33167A3.35613,3.35613,0,0,1,158.1404,53.104V89.769a3.33441,3.33441,0,0,1-3.33319,3.33319Z" transform="translate(-13.27583 -3.22915)"/></svg>