<svg id="Capa_1" data-name="Capa 1" xmlns="http://www.w3.org/2000/svg" viewBox="0 0 200 200"><defs><style>.cls-1{fill:#2c38a8;}.cls-2{fill:#fff;}</style></defs><title>BringuLogoIcon</title><rect class="cls-1" width="200" height="200" rx="25"/><path class="cls-2" d="M138.45012,191.49486a3.30937,3.30937,0,0,1-1.53993-.38l-76.61-39.99826a3.33483,3.33483,0,0,1-1.79325-2.95321V73.16666a3.33146,3.33146,0,0,1,4.81979-2.97987l76.61,38.33167a3.33856,3.33856,0,0,1,1.83992,2.97987v76.66334a3.33335,3.33335,0,0,1-1.6066,2.85321A3.28529,3.28529,0,0,1,138.45012,191.49486ZM65.17331,146.1435l69.94363,36.51842V113.55825L65.17331,78.55977Z" transform="translate(-38.5 -11.5)"/><path class="cls-2" d="M138.55679,191.49486a3.32847,3.32847,0,0,1-3.33319-3.33319V111.49833a3.33857,3.33857,0,0,1,1.83992-2.97986l76.61-38.33167A3.3385,3.3385,0,0,1,218.5,73.16667v74.99674a3.33483,3.33483,0,0,1-1.79325,2.95321l-76.61,39.99826a3.30934,3.30934,0,0,1-1.53993.38ZM141.89,113.55824v69.10367l69.94363-36.51842V78.55976Zm73.27682,34.60517h0Z" transform="translate(-38.5 -11.5)"/><path class="cls-2" d="M61.84012,76.49985a3.33132,3.33132,0,0,1-1.49327-6.31306l76.71667-38.33167a3.34646,3.34646,0,0,1,2.97987,0l76.61,38.33167a3.33458,3.33458,0,0,1-2.97986,5.96641L138.5568,38.5615l-75.22341,37.585a3.319,3.319,0,0,1-1.49327.35332Z" transform="translate(-38.5 -11.5)"/><path class="cls-2" d="M158.50172,143.49747a3.33441,3.33441,0,0,1-3.33319-3.33319V105.55911L80.39845,68.1474A3.33607,3.33607,0,0,1,83.385,62.181l76.61,38.33167a3.35613,3.35613,0,0,1,1.83992,2.98654v36.66508a3.33441,3.33441,0,0,1-3.33319,3.33319Z" transform="translate(-38.5 -11.5)"/><path class="cls-2" d="M200.0314,121.37822a3.33441,3.33441,0,0,1-3.33319-3.33319V83.43986L121.92812,46.02815a3.33607,3.33607,0,0,1,2.98654-5.9664l76.61,38.33167a3.35613,3.35613,0,0,1,1.83991,2.98653V118.045a3.33441,3.33441,0,0,1-3.33319,3.33319Z" transform="translate(-38.5 -11.5)"/></svg>