<?xml version="1.0" encoding="utf-8"?>
<!-- Generator: Adobe Illustrator 24.0.0, SVG Export Plug-In . SVG Version: 6.00 Build 0)  -->
<svg version="1.1" id="Capa_1" xmlns="http://www.w3.org/2000/svg" xmlns:xlink="http://www.w3.org/1999/xlink" x="0px" y="0px"
	 viewBox="0 0 2118.7 490" style="enable-background:new 0 0 2118.7 490;" xml:space="preserve">
<style type="text/css">
	.st0{fill:#2C38A8;stroke:#FFFFFF;stroke-miterlimit:10;}
	.st1{fill:#F3DC24;}
	.st2{fill:#2C38A8;}
	.st3{fill:#FFFFFF;}
</style>
<title>BRINGUlogotext</title>
<rect x="40" y="40" class="st0" width="450" height="450"/>
<rect class="st1" width="450" height="450"/>
<path class="st2" d="M119.8,77.8h102.6c62.2,0,110.6,17.1,110.6,74.4c0,26.9-15,55.5-39.5,64.7v1.8c30.6,8,54.3,30.5,54.3,70.6
	c0,61-51.6,88.3-116.8,88.3H119.8V77.8z M219.3,197.8c32.9,0,47.4-13.9,47.4-35.7c0-23.1-15.4-32.1-47-32.1h-32.2v67.8H219.3z
	 M225.5,325.3c36.9,0,56-13.1,56-40.4c0-26.3-18.8-37-56-37h-37.9v77.4H225.5z"/>
<circle class="st2" cx="25" cy="25" r="12.5"/>
<circle class="st2" cx="425" cy="425" r="12.5"/>
<path class="st3" d="M584,92.7h102.6c62.2,0,110.6,17.1,110.6,74.4c0,26.9-15,55.5-39.5,64.7v1.8c30.6,8,54.3,30.5,54.3,70.6
	c0,61-51.6,88.3-116.8,88.3H584V92.7z M683.5,212.8c32.9,0,47.4-13.9,47.4-35.7c0-23.1-15.4-32.1-47-32.1h-32.2v67.8H683.5z
	 M689.6,340.2c36.9,0,56-13.1,56-40.4c0-26.3-18.8-37-56-37h-37.9v77.4H689.6z"/>
<path class="st3" d="M862.3,92.7h108c63.6,0,115.7,22.1,115.7,93.4c0,68.9-52.1,98.6-115.7,98.6h-40.2v107.9h-67.8V92.7z
	 M964.7,230.8c35.7,0,54.8-15.3,54.8-44.7c0-29.6-19.2-39.5-54.8-39.5h-34.7v84.3H964.7z M957.9,266.8l46.9-43.4l95.7,169.1h-75.8
	L957.9,266.8z"/>
<path class="st3" d="M1144.3,92.7h67.8v299.8h-67.8V92.7z"/>
<path class="st3" d="M1282.7,92.7h69.5l78.2,149.1l29.7,65.9h1.8c-3.2-31.7-8.7-73.7-8.7-109.1V92.7h64.6v299.8h-69.5L1370.1,243
	l-29.7-65.5h-1.8c3.2,33.1,8.7,73.2,8.7,108.6v106.4h-64.6V92.7z"/>
<path class="st3" d="M1574.4,244.3c0-99.5,66.1-157.2,146.1-157.2c43.5,0,74.4,18.6,94.6,38.9l-35.7,43.5
	c-14.9-13.7-30.9-23.9-56.6-23.9c-46.2,0-78.9,36.2-78.9,96.4c0,61.6,27.9,97.4,84.4,97.4c12,0,24.4-3.1,31.7-8.9v-51.8h-49.7v-55.3
	h109.9v138.2c-20.7,20.2-57.1,36.3-98.9,36.3C1638.7,398,1574.4,345.3,1574.4,244.3z"/>
<path class="st3" d="M1880.4,253.6V92.7h67.8v167.8c0,58.7,18.5,79,52,79c33.7,0,53.1-20.3,53.1-79V92.7h65.3v160.9
	c0,100.7-40.9,144.5-118.5,144.5C1922.7,398,1880.4,354.2,1880.4,253.6z"/>
</svg>
