<svg id="Capa_1" data-name="Capa 1" xmlns="http://www.w3.org/2000/svg" viewBox="0 0 490 490"><defs><style>.cls-1{fill:#2c38a8;}.cls-2{fill:#f3dc24;}</style></defs><title>bringulogo</title><rect class="cls-1" x="40" y="40" width="450" height="450"/><rect class="cls-2" width="450" height="450"/><path class="cls-1" d="M394.8208,352.76563H497.44092c62.23681,0,110.56982,17.09814,110.56982,74.35937,0,26.894-15.04394,55.52441-39.502,64.72461v1.83984c30.626,7.957,54.27441,30.52246,54.27441,70.56934,0,60.99316-51.5791,88.32129-116.79,88.32129H394.8208Zm99.48438,120.08105c32.8872,0,47.439-13.90332,47.439-35.70508,0-23.09765-15.36133-32.07764-46.95312-32.07764h-32.1875v67.78272Zm6.168,127.43555c36.94971,0,56.04346-13.14649,56.04346-40.41016,0-26.291-18.76953-37.001-56.04346-37.001H462.60352v77.41114Z" transform="translate(-275 -275)"/><circle class="cls-1" cx="25" cy="25" r="12.5"/><circle class="cls-1" cx="425" cy="425" r="12.5"/></svg>